<?xml version="1.0" encoding="utf-8"?>
<!-- Generator: Adobe Illustrator 19.1.0, SVG Export Plug-In . SVG Version: 6.00 Build 0)  -->
<svg version="1.1" id="Layer_1" xmlns="http://www.w3.org/2000/svg" xmlns:xlink="http://www.w3.org/1999/xlink" x="0px" y="0px"
	 viewBox="0 0 58 59" enable-background="new 0 0 58 59" xml:space="preserve">
<g>
	<path d="M28.4,18.2c-2.5,0.2-4.3,1.3-5.6,2.7c-1.3,1.4-2.4,3.3-2.2,6c0.1,2.5,1.1,4.3,2.5,5.7c1.3,1.3,3.3,2.4,5.8,2.4
		c4.7,0,8.4-3.6,8.4-8.4c0-2.7-1.2-4.7-2.6-6C33.3,19.2,31,18,28.4,18.2z M30.5,27.1c-0.2,0.6-0.9,1.1-1.4,1.6
		c-0.5,0.5-1.1,1.2-1.6,1.3c-1.2,0.2-2.2-0.7-2-2.1c0.1-0.3,0.5-0.9,0.8-1.1c0.2-0.2,0.8-0.6,0.9-0.9c0.2-0.8,0-1.8,0-2.6
		c0-1.7-0.2-3.1,1.4-3.4c0.7-0.1,1.6,0.2,1.9,0.9c0.2,0.6,0.1,2.2,0.1,3.1C30.5,25,30.7,26.3,30.5,27.1z"/>
	<path d="M29,0C13,0,0,12,0,26.8c0,9.5,5.3,17.8,13.3,22.6C10.7,55,5.4,59,5.4,59s11-0.4,15.7-6.3c2.5,0.7,5.2,1,7.9,1
		c16,0,29-12,29-26.8C58,12,45,0,29,0z M15.5,17c0-0.4,0-0.8,0-1.2c0.5-2.5,1.9-4,4.4-4.5c0.4,0,0.8,0,1.1,0
		c1.7,0.3,2.8,1.1,3.7,2.3c-3.4,1.2-5.9,3.3-7.6,6.4C16.3,19.6,15.8,18.3,15.5,17z M40.5,36.1c0.4,1.4-0.8,2.6-2.1,2.2
		c-1-0.3-1.7-1.8-2.5-2.3c-1.7,1.3-4,2.4-6.9,2.4c-2.9,0-5.3-1-7-2.3c-0.9,0.3-1.5,1.9-2.6,2.3c-1.3,0.4-2.4-0.6-2.2-2
		c0.2-1.1,1.9-1.8,2.3-2.7c-2.5-2.8-3.1-8.4-1.1-12.4c1.7-3.4,5.1-6.2,9.7-6.5c5.2-0.3,9,2.5,10.9,5.8c1,1.8,1.8,4.2,1.6,6.8
		c-0.2,2.5-1.1,4.4-2.3,6.1C38.6,34.5,40.2,35,40.5,36.1z M40.6,20.1c-1.6-3-4.1-5.2-7.6-6.3c0.8-1.2,1.9-2.1,3.7-2.4
		c0.4,0,0.8,0,1.1,0c2.3,0.3,4.2,2.2,4.4,4.6C42.4,17.5,41.8,19.3,40.6,20.1z"/>
</g>
</svg>
