<?xml version="1.0" encoding="utf-8"?>
<!-- Generator: Adobe Illustrator 19.1.0, SVG Export Plug-In . SVG Version: 6.00 Build 0)  -->
<svg version="1.1" id="Layer_1" xmlns="http://www.w3.org/2000/svg" xmlns:xlink="http://www.w3.org/1999/xlink" x="0px" y="0px"
	 viewBox="0 0 46 53" enable-background="new 0 0 46 53" xml:space="preserve">
<g>
	<path fill-rule="evenodd" clip-rule="evenodd" d="M45.4,4.1c-0.7-2.2-2.9-3.8-5.1-4.1c-11.5,0-23,0-34.6,0C3.1,0.4,0.5,2.5,0.2,5.7
		C-0.1,9,0,44,0.2,47.2c0.3,3.2,2.6,5.3,5.4,5.8c11.5,0,23,0,34.6,0c2.4-0.4,4.4-1.9,5.1-4.3C46.2,45.8,46.2,6.7,45.4,4.1z
		 M27.7,3.9c2-0.3,3.6,0.9,3.8,2.8c0.4,4.4-5.8,4.8-6.6,1.2C24.4,5.9,25.5,4.2,27.7,3.9z M24.6,42.9c-8.8,0.9-16.2-5.5-16.2-14.2
		c0-6.8,4.1-11.5,8.9-13.5c1.1-0.5,2.5-0.8,4.2-0.9c6.4-0.6,10.7,2.3,13.3,5.9c1.4,1.9,2.7,5.2,2.7,8.4
		C37.5,36.6,31.5,42.2,24.6,42.9z M41.7,8c-0.3,1.7-2.1,2.5-3.2,2.5c-4.2,0-4.4-6-0.4-6.5C40.3,3.7,42.3,5.3,41.7,8z"/>
	<path fill-rule="evenodd" clip-rule="evenodd" d="M22.3,16.1c-3.2,0.2-5.6,1.4-7.3,3c-1.8,1.6-3.2,3.3-3.8,6.5
		c-1.3,7.1,3.7,13.5,10.7,14.1c7.3,0.6,12.1-4.4,13-9.9C36.1,22,29.8,15.6,22.3,16.1z M22.4,27.8c-2.9-0.2-6.3-2.8-9.1-0.8
		c0.5-4.9,3.8-8.5,8.9-8.9c6-0.5,9.9,3.6,10.7,8.9C29.7,25.2,26,28.1,22.4,27.8z"/>
</g>
</svg>
