<svg id="Layer_1" xmlns="http://www.w3.org/2000/svg" viewBox="0 0 40 34"><path d="M39.9 21.9c-.5-.7-.9-1.3-1.4-1.9-3-4-6.8-6.6-11.7-7.7-4-.9-7.9-.9-12-.3C8.2 13.1 3.4 16.6 0 22.3 1.8 25.4 4.2 28 7.3 30c6.1 3.8 12.7 4.8 19.7 3.5 3.7-.7 6.9-2.5 9.3-5.5 1.4-1.7 2.5-3.7 3.7-5.5 0-.2 0-.4-.1-.6zm-17.7-5.8c1.6 0 3 1.3 3 2.9 0 1.7-1.3 3-3 3-1.6 0-3-1.3-3-3-.1-1.5 1.3-2.9 3-2.9zm13.4 6.6c-2 3.7-4.9 6.3-9.1 7.2-2.5.6-4.9.6-7.4.4-3.4-.3-6.7-1.3-9.6-3.2-2-1.3-3.7-2.8-5.1-4.7 2.3-3.2 5.3-5.4 9.2-6.4-2.1 6.4 2.7 11.5 7.5 12.1 5.8.7 10.7-4.1 10.2-10.1.6.5 1.2.8 1.6 1.3.9.9 1.8 1.9 2.6 2.8.2.2.2.5.1.6zM22.3 0h-4v6.4h4V0zM32.8 8.1c.3-.2.5-.7.7-1.1.7-1.3 1.3-2.6 2-3.9-1.2-.6-2.4-1.2-3.7-1.9-1 2-2 3.9-3 6 1 .2 1.9.5 2.8.7.4 0 .9.3 1.2.2zM7.7 8.1c1.1-.3 2.1-.6 3.2-.8.2-.1.4-.1.7-.2C10.4 5.5 9.2 3.9 8 2.4L4.7 4.8c.8 1.1 1.6 2 2.3 3.1.2.2.4.2.7.2z"/></svg>