<svg id="Layer_1" xmlns="http://www.w3.org/2000/svg" viewBox="0 0 36 36"><path d="M26.9 16.6h-.3l-6.7-.6-.5-6.5v-.3c-.1-.2-.2-.5-.3-.6-.5-.5-1.4-.5-2 .1-.2.2-.4.5-.4.8v.2c-.1.8-.4 3.9-.5 6.5-2.6.1-5.6.5-6.5.5h-.2c-.3.1-.6.2-.8.4-.6.6-.6 1.5-.1 2 .2.2.4.3.6.3h.3l6.5.5.6 6.7v.2c0 .2.2.5.3.6.5.5 1.4.5 2-.1.3-.3.4-.6.4-.9 0 0 .4-3.6.6-6.6 3-.2 6.6-.6 6.6-.6.3 0 .6-.2.9-.4.6-.6.6-1.5.1-2-.1-.1-.3-.2-.6-.2z"/><path d="M18 0C6.4 0 0 6.4 0 18c0 11.1 6.9 18 18 18s18-6.9 18-18C36 6.6 29.4 0 18 0zm0 32.6c-4.4 0-14.6-1.4-14.6-14.6C3.4 8.3 8.3 3.4 18 3.4c12 0 14.6 7.9 14.6 14.6 0 4.4-1.4 14.6-14.6 14.6z"/></svg>