<?xml version="1.0" encoding="utf-8"?>
<!-- Generator: Adobe Illustrator 19.1.0, SVG Export Plug-In . SVG Version: 6.00 Build 0)  -->
<svg version="1.1" id="Layer_1" xmlns="http://www.w3.org/2000/svg" xmlns:xlink="http://www.w3.org/1999/xlink" x="0px" y="0px"
	 viewBox="0 0 58 59" enable-background="new 0 0 58 59" xml:space="preserve">
<path d="M29,0C13,0,0,12,0,26.8c0,9.5,5.3,17.8,13.3,22.6C10.7,55,5.4,59,5.4,59s11-0.4,15.7-6.3c2.5,0.7,5.2,1,7.9,1
	c16,0,29-12,29-26.8C58,12,45,0,29,0z M40.1,37.5H17.1c-1.2,0-2.2-1-2.2-2.3c0-1.2,1-2.3,2.2-2.3h22.9c1.2,0,2.2,1,2.2,2.3
	C42.3,36.5,41.3,37.5,40.1,37.5z M40.1,28.2H17.1c-1.2,0-2.2-1-2.2-2.3c0-1.2,1-2.3,2.2-2.3h22.9c1.2,0,2.2,1,2.2,2.3
	C42.3,27.2,41.3,28.2,40.1,28.2z M40.1,18.4H17.1c-1.2,0-2.2-1-2.2-2.3c0-1.2,1-2.3,2.2-2.3h22.9c1.2,0,2.2,1,2.2,2.3
	C42.3,17.4,41.3,18.4,40.1,18.4z"/>
</svg>
