<svg id="Layer_1" xmlns="http://www.w3.org/2000/svg" viewBox="0 0 36 36"><path d="M18 0C6.4 0 0 6.4 0 18c0 11.1 6.9 18 18 18s18-6.9 18-18C36 6.6 29.4 0 18 0zm0 32.6c-4.4 0-14.6-1.4-14.6-14.6C3.4 8.3 8.3 3.4 18 3.4c12 0 14.6 7.9 14.6 14.6 0 4.4-1.4 14.6-14.6 14.6z"/><path d="M15.2 24.7c-1.5 1.5-3.6.9-4.3-.9-.4-1 0-1.9.7-2.7l3-3c.6-.6 1.2-1.1 1.8-1.6.2-.2.4-.3.7-.3.8-.2 1.4.1 2.1.5.1.1.1.1.2.1l1.8-1.8s0-.1-.1-.1c-1.7-1.6-4.3-1.7-6.1-.6-.8.5-1.5 1.2-2.2 1.9-.9.9-1.9 1.9-2.9 2.8-1.4 1.4-2 3.1-1.6 5 .2 1.1.8 1.9 1.7 2.6.8.7 1.7 1.1 2.8 1.2 2.2.2 3.8-1 5-2.5-.6-.6-1.1-1.2-1.7-1.8-.3.5-.6.9-.9 1.2z"/><path d="M25.4 8.4c-.4-.2-.9-.4-1.4-.5-2.3-.2-3.9.9-5.2 2.5.6.6 1.1 1.2 1.7 1.8.2-.3.5-.5.7-.7.5-.6 1.1-1 1.8-1.2.9-.2 1.5.1 2 .8 0 .1.1.1.2.2.9 1 .9 2.3 0 3.3-1.4 1.5-2.9 3-4.4 4.4-.6.6-1.4.8-2.2.5-.4-.1-.8-.4-1.2-.5l-1.8 1.8c1 .9 2.2 1.4 3.5 1.4 1.3 0 2.5-.5 3.4-1.4 1.5-1.5 3-2.9 4.4-4.4 1.5-1.6 1.8-4 .6-5.9-.4-.9-1.2-1.6-2.1-2.1z"/></svg>