<?xml version="1.0" encoding="utf-8"?>
<!-- Generator: Adobe Illustrator 19.1.0, SVG Export Plug-In . SVG Version: 6.00 Build 0)  -->
<svg version="1.1" id="Layer_1" xmlns="http://www.w3.org/2000/svg" xmlns:xlink="http://www.w3.org/1999/xlink" x="0px" y="0px"
	 viewBox="0 0 65 53" enable-background="new 0 0 65 53" xml:space="preserve">
<g>
	<path fill-rule="evenodd" clip-rule="evenodd" d="M36.6,6.7c0-1.8,0-3.6,0-5.3c-0.5-1.8-3.6-1.8-4.1,0c0,1.8,0,3.6,0,5.3
		C33,8.5,36.1,8.5,36.6,6.7z"/>
	<path fill-rule="evenodd" clip-rule="evenodd" d="M24.4,6.7c0-1.8,0-3.6,0-5.3c-0.5-1.8-3.6-1.8-4.1,0c0,1.8,0,3.6,0,5.3
		C20.8,8.5,23.9,8.5,24.4,6.7z"/>
	<path fill-rule="evenodd" clip-rule="evenodd" d="M12.2,6.7c0-1.8,0-3.6,0-5.3c-0.5-1.8-3.6-1.8-4.1,0c0,1.8,0,3.6,0,5.3
		C8.6,8.5,11.7,8.5,12.2,6.7z"/>
	<path fill-rule="evenodd" clip-rule="evenodd" d="M54.5,12.2c-17.6,0-38,0-54.5,0c0,6.1,0,12.2,0,18.3c1.3,10.3,7.2,17.6,15.7,20.9
		c13.1,5,25.4-2.4,30-11c11.4,1.2,17.6-5,19.3-14.4c0-3.6,0-7.1,0-10.7C64.2,11.3,59.2,12.2,54.5,12.2z M48.5,32.5
		c0.4-3.7,0.2-8.1,0.3-12.2c2.7,0,5.3,0,8,0C57.7,27.6,55,32.3,48.5,32.5z"/>
</g>
</svg>
