<?xml version="1.0" encoding="utf-8"?>
<!-- Generator: Adobe Illustrator 19.1.0, SVG Export Plug-In . SVG Version: 6.00 Build 0)  -->
<svg version="1.1" id="Layer_1" xmlns="http://www.w3.org/2000/svg" xmlns:xlink="http://www.w3.org/1999/xlink" x="0px" y="0px"
	 viewBox="0 0 58 59" enable-background="new 0 0 58 59" xml:space="preserve">
<g>
	<path d="M33.7,18.2c-1.4,0.2-2.5,1.4-2.3,3.1c0.2,1.3,1.4,2.4,2.8,2.4c2.1,0,3.2-2.2,2.4-3.9C36.2,18.7,35,18.1,33.7,18.2z"/>
	<path d="M29,0C13,0,0,12,0,26.8c0,9.5,5.3,17.8,13.3,22.6C10.7,55,5.4,59,5.4,59s11-0.4,15.7-6.3c2.5,0.7,5.2,1,7.9,1
		c16,0,29-12,29-26.8C58,12,45,0,29,0z M43,26.6c-0.1,0.6-1.3,1.5-1.9,2c-4,4-7.5,7.6-11.5,11.7c-0.5,0.5-1.5,1.7-2.1,1.8
		c-0.6,0-1.5-1.2-2-1.6c-3.8-3.8-7-7.1-10.8-10.9c-0.5-0.5-1.6-1.3-1.7-1.9c0-0.7,1.2-1.5,1.7-2.1C19.4,21,24,16.3,28.4,12
		c3.4,0.3,6.7,0.5,10.3,0.8c1,0.1,2.8,0,3.2,0.4c0.4,0.4,0.4,2.4,0.4,3.3c0.2,3.2,0.4,5.4,0.6,8.5C42.9,25.5,43.1,26.2,43,26.6z"/>
</g>
</svg>
