<svg id="Layer_1" xmlns="http://www.w3.org/2000/svg" viewBox="0 0 38 38"><path d="M18.9 8c-.3-.3-.5-.3-.8-.2-3.6 1.6-7.3 3.1-10.9 4.7-.3.1-.5.4-.6.7l-3.3 9.9c-1.1 3.2-2.1 6.3-3.2 9.5-.1.2-.1.5 0 .6.5.5 1 1 1.5 1.6.1-.1.2-.2.3-.2L12.5 24c.3-.3.2-.5 0-.7-.7-1.7-.6-3.3.5-4.8s2.6-2.2 4.4-1.9c2 .3 3.4 1.4 4 3.4.6 1.9.1 3.6-1.5 4.9-1.5 1.3-3.3 1.5-5.1.7-.4-.2-.5-.1-.8.1l-8.8 8.8c-.7.6-1.3 1.3-2 2l1.3 1.3c.3.3.5.3.9.2 6.4-2.2 12.9-4.3 19.3-6.4.4-.1.6-.3.7-.7 1.5-3.6 3.1-7.2 4.7-10.9.2-.4.1-.6-.2-.9-3.6-3.7-7.3-7.4-11-11.1zM22.9 0l-1.5 4.5c-.1.3 0 .5.2.7 1 .9 1.9 1.9 2.8 2.8l8.4 8.4c.1.1.4.3.6.2 1.6-.5 3.2-1 4.7-1.5C33 10.1 27.9 5 22.9 0z"/></svg>