<svg id="Layer_1" xmlns="http://www.w3.org/2000/svg" viewBox="0 0 58 59"><path d="M28.4 18.2c-2.5.2-4.3 1.3-5.6 2.7-1.3 1.4-2.4 3.3-2.2 6 .1 2.5 1.1 4.3 2.5 5.7 1.3 1.3 3.3 2.4 5.8 2.4 4.7 0 8.4-3.6 8.4-8.4 0-2.7-1.2-4.7-2.6-6-1.4-1.4-3.7-2.6-6.3-2.4zm2.1 8.9c-.2.6-.9 1.1-1.4 1.6-.5.5-1.1 1.2-1.6 1.3-1.2.2-2.2-.7-2-2.1.1-.3.5-.9.8-1.1.2-.2.8-.6.9-.9.2-.8 0-1.8 0-2.6 0-1.7-.2-3.1 1.4-3.4.7-.1 1.6.2 1.9.9.2.6.1 2.2.1 3.1-.1 1.1.1 2.4-.1 3.2z"/><path d="M29 0C13 0 0 12 0 26.8c0 9.5 5.3 17.8 13.3 22.6C10.7 55 5.4 59 5.4 59s11-.4 15.7-6.3c2.5.7 5.2 1 7.9 1 16 0 29-12 29-26.8C58 12 45 0 29 0zM15.5 17v-1.2c.5-2.5 1.9-4 4.4-4.5H21c1.7.3 2.8 1.1 3.7 2.3-3.4 1.2-5.9 3.3-7.6 6.4-.8-.4-1.3-1.7-1.6-3zm25 19.1c.4 1.4-.8 2.6-2.1 2.2-1-.3-1.7-1.8-2.5-2.3-1.7 1.3-4 2.4-6.9 2.4-2.9 0-5.3-1-7-2.3-.9.3-1.5 1.9-2.6 2.3-1.3.4-2.4-.6-2.2-2 .2-1.1 1.9-1.8 2.3-2.7-2.5-2.8-3.1-8.4-1.1-12.4 1.7-3.4 5.1-6.2 9.7-6.5 5.2-.3 9 2.5 10.9 5.8 1 1.8 1.8 4.2 1.6 6.8-.2 2.5-1.1 4.4-2.3 6.1.3 1 1.9 1.5 2.2 2.6zm.1-16c-1.6-3-4.1-5.2-7.6-6.3.8-1.2 1.9-2.1 3.7-2.4h1.1c2.3.3 4.2 2.2 4.4 4.6.2 1.5-.4 3.3-1.6 4.1z"/></svg>