<svg id="Layer_1" xmlns="http://www.w3.org/2000/svg" viewBox="0 0 35 36"><path d="M35 11.6c0-1-.3-1.9-.8-2.7-1.3-2.2-3.3-3.1-5.7-3.4-1.1-.1-2.2-.2-3.4-.3v-3C25 .8 24.1 0 22.7 0H11.9c-1.6 0-2.4.7-2.5 2.2h-.1v3c-.7.1-1.3.1-1.9.1-2 .2-3.9.6-5.5 2-1 .9-1.8 2-1.8 3.3C0 16.5 0 20.4 0 26.3c0 .5.1 1.1.3 1.5 1.1 2.6 3.3 3.6 5.9 4 .4.1.6.2.6.6v1.1c0 1.6.9 2.4 2.5 2.4h16.4c1.6 0 2.5-.8 2.5-2.4v-1.8c1.5-.2 2.8-.5 4-1.3 1.7-1.2 2.8-2.7 2.7-4.8 0-5.4.1-8.6.1-14zM10.9 22.5c.3-.5.7-.4 1.2-.3 1.5.4 3.1 1 4.6 1.2 2 .3 3.8-.4 5.6-1.2.6-.3 1.1-.4 1.4.3.3.7-.3.9-.8 1.1-1.8.8-3.7 1.4-5.9 1.4-1.9-.1-3.8-.6-5.6-1.4-.4-.2-.8-.5-.5-1.1zm-.1-5.4c0-1 .8-1.8 1.8-1.8s1.8.8 1.8 1.8-.8 1.8-1.8 1.8-1.8-.8-1.8-1.8zM22 18.9c-1 0-1.8-.8-1.8-1.8s.8-1.8 1.8-1.8 1.8.8 1.8 1.8c0 1.1-.8 1.8-1.8 1.8z"/></svg>