<svg id="Layer_1" xmlns="http://www.w3.org/2000/svg" viewBox="0 0 46 53"><g fill-rule="evenodd" clip-rule="evenodd"><path d="M45.4 4.1C44.7 1.9 42.5.3 40.3 0H5.7C3.1.4.5 2.5.2 5.7-.1 9 0 44 .2 47.2c.3 3.2 2.6 5.3 5.4 5.8h34.6c2.4-.4 4.4-1.9 5.1-4.3.9-2.9.9-42 .1-44.6zm-17.7-.2c2-.3 3.6.9 3.8 2.8.4 4.4-5.8 4.8-6.6 1.2-.5-2 .6-3.7 2.8-4zm-3.1 39c-8.8.9-16.2-5.5-16.2-14.2 0-6.8 4.1-11.5 8.9-13.5 1.1-.5 2.5-.8 4.2-.9 6.4-.6 10.7 2.3 13.3 5.9 1.4 1.9 2.7 5.2 2.7 8.4 0 8-6 13.6-12.9 14.3zM41.7 8c-.3 1.7-2.1 2.5-3.2 2.5-4.2 0-4.4-6-.4-6.5 2.2-.3 4.2 1.3 3.6 4z"/><path d="M22.3 16.1c-3.2.2-5.6 1.4-7.3 3-1.8 1.6-3.2 3.3-3.8 6.5-1.3 7.1 3.7 13.5 10.7 14.1 7.3.6 12.1-4.4 13-9.9 1.2-7.8-5.1-14.2-12.6-13.7zm.1 11.7c-2.9-.2-6.3-2.8-9.1-.8.5-4.9 3.8-8.5 8.9-8.9 6-.5 9.9 3.6 10.7 8.9-3.2-1.8-6.9 1.1-10.5.8z"/></g></svg>