<svg id="Layer_1" xmlns="http://www.w3.org/2000/svg" viewBox="0 0 35 37"><path d="M35 13.1c0-2.3-1.7-4.1-4-4.3-.3 0-.4-.1-.5-.4C29.3 6 28.2 3.7 27 1.3 26.6.5 25.9 0 25 0h-6c-.9 0-1.5.4-1.9 1.2l-3.6 7.2c-.2.4-.4.4-.7.4h-8C1.9 8.8 0 10.7 0 13.4v21.7h.1C.4 36.3 1.2 37 2.6 37h29.7c1.5 0 2.3-.6 2.6-1.9h.1v-22zm-13.1.1c4.7 0 8.7 3.9 8.7 8.7 0 4.9-3.9 8.9-8.7 8.9-4.9 0-8.8-3.9-8.8-8.8s4-8.8 8.8-8.8zm-15.3 0c1.2 0 2.2 1 2.2 2.2 0 1.2-1 2.2-2.2 2.2-1.2 0-2.2-1-2.2-2.2 0-1.2 1-2.2 2.2-2.2z"/><path d="M21.8 26.4c2.4 0 4.4-1.9 4.4-4.4 0-2.4-1.9-4.4-4.4-4.4-2.4 0-4.4 2-4.4 4.4.1 2.4 2 4.4 4.4 4.4z"/></svg>