<svg id="Layer_1" xmlns="http://www.w3.org/2000/svg" viewBox="0 0 58 59"><path d="M29 0C13 0 0 12 0 26.8c0 9.5 5.3 17.8 13.3 22.6C10.7 55 5.4 59 5.4 59s11-.4 15.7-6.3c2.5.7 5.2 1 7.9 1 16 0 29-12 29-26.8C58 12 45 0 29 0zm11.1 37.5h-23c-1.2 0-2.2-1-2.2-2.3 0-1.2 1-2.3 2.2-2.3H40c1.2 0 2.2 1 2.2 2.3.1 1.3-.9 2.3-2.1 2.3zm0-9.3h-23c-1.2 0-2.2-1-2.2-2.3 0-1.2 1-2.3 2.2-2.3H40c1.2 0 2.2 1 2.2 2.3.1 1.3-.9 2.3-2.1 2.3zm0-9.8h-23c-1.2 0-2.2-1-2.2-2.3 0-1.2 1-2.3 2.2-2.3H40c1.2 0 2.2 1 2.2 2.3.1 1.3-.9 2.3-2.1 2.3z"/></svg>