<svg id="Layer_1" xmlns="http://www.w3.org/2000/svg" viewBox="0 0 58 59"><path d="M33.7 18.2c-1.4.2-2.5 1.4-2.3 3.1.2 1.3 1.4 2.4 2.8 2.4 2.1 0 3.2-2.2 2.4-3.9-.4-1.1-1.6-1.7-2.9-1.6z"/><path d="M29 0C13 0 0 12 0 26.8c0 9.5 5.3 17.8 13.3 22.6C10.7 55 5.4 59 5.4 59s11-.4 15.7-6.3c2.5.7 5.2 1 7.9 1 16 0 29-12 29-26.8C58 12 45 0 29 0zm14 26.6c-.1.6-1.3 1.5-1.9 2-4 4-7.5 7.6-11.5 11.7-.5.5-1.5 1.7-2.1 1.8-.6 0-1.5-1.2-2-1.6-3.8-3.8-7-7.1-10.8-10.9-.5-.5-1.6-1.3-1.7-1.9 0-.7 1.2-1.5 1.7-2.1C19.4 21 24 16.3 28.4 12c3.4.3 6.7.5 10.3.8 1 .1 2.8 0 3.2.4.4.4.4 2.4.4 3.3.2 3.2.4 5.4.6 8.5 0 .5.2 1.2.1 1.6z"/></svg>