<svg id="Layer_1" xmlns="http://www.w3.org/2000/svg" viewBox="0 0 37 39"><path d="M37 16H2.7v-.1c1.6-.5 3.1-.9 4.8-1.4C6.7 12.3 5.8 10 5 7.7c-1.7.5-3.3 1-5 1.5.7 2.2 1.4 4.2 2.1 6.3.1.3.2.7.2 1.1v19.9c0 1.6.9 2.6 2.6 2.6h29.4c1.8 0 2.7-.9 2.7-2.7V16zm-4.7 11.5H6.9v-6.8h25.4v6.8zM26.6 9.2c-.9-2.3-1.7-4.5-2.6-6.8-2.3.6-4.5 1.3-6.8 1.9.9 2.3 1.7 4.5 2.6 6.8 2.3-.6 4.5-1.3 6.8-1.9z"/><path d="M16.7 12c-.9-2.3-1.7-4.5-2.6-6.8-2 .6-3.9 1.1-6 1.7.9 2.3 1.7 4.5 2.6 6.8 2-.6 4-1.2 6-1.7zm18-5.1c-.8-2.3-1.5-4.6-2.3-6.9-1.8.5-3.5 1-5.2 1.5.8 2.3 1.7 4.5 2.5 6.8 1.7-.5 3.3-.9 5-1.4z"/></svg>