<?xml version="1.0" encoding="utf-8"?>
<!-- Generator: Adobe Illustrator 19.1.0, SVG Export Plug-In . SVG Version: 6.00 Build 0)  -->
<svg version="1.1" id="Layer_1" xmlns="http://www.w3.org/2000/svg" xmlns:xlink="http://www.w3.org/1999/xlink" x="0px" y="0px"
	 viewBox="0 0 23 17" enable-background="new 0 0 23 17" xml:space="preserve">
<path fill="#FFA300" d="M0.1,0.1c2,2.5,4,5,6,7.6l5.4-6.9c1.8,2.3,3.7,4.6,5.5,6.9c2-2.5,4-5.1,5.9-7.6H23c-0.1,0.6-0.1,1.3-0.2,1.9
	c-0.1,1.7-0.3,3.4-0.4,5.1c-0.2,1.7-0.3,3.5-0.5,5.2c-0.1,1.4-0.2,2.8-0.4,4.2c0,0.5,0,0.5-0.5,0.5H1.8c-0.3,0-0.4-0.1-0.5-0.4
	C1.2,14.7,1,12.9,0.8,11c0-1.5-0.1-3.1-0.3-4.7C0.4,4.4,0.2,2.5,0,0.6C0,0.4,0,0.3,0.1,0.1C0,0.1,0,0.1,0.1,0.1z"/>
</svg>
