<svg id="Layer_1" xmlns="http://www.w3.org/2000/svg" viewBox="0 0 130 80"><path d="M71.7 0c2 2.4 3.9 4.8 5.9 7.3 1.8-2.2 3.6-4.4 5.4-6.7 1.8 2.2 3.6 4.4 5.4 6.7 2-2.4 3.9-4.9 5.9-7.3h.1c-.1.6-.1 1.2-.2 1.9-.1 1.6-.3 3.3-.4 4.9-.2 1.7-.3 3.3-.4 5-.1 1.4-.2 2.7-.4 4.1 0 .5 0 .5-.5.5h-19c-.3 0-.4-.1-.5-.4-.1-1.8-.3-3.6-.5-5.4-.1-1.5-.3-3-.4-4.6-.2-1.8-.3-3.7-.5-5.5.1-.2.1-.3.1-.5z" fill="#FFA300"/><g fill="#FFF"><path d="M31.2 68.8c1.6 0 2.9.7 3.9 1.9.2.2.1.6-.1.7l-.9.8c-.3.3-.5.1-.7-.1-.5-.5-1.3-1-2.2-1-1.7 0-3.1 1.5-3.1 3.3 0 1.8 1.3 3.3 3.1 3.3 1.4 0 1.9-.7 2.5-1.2.2-.2.5-.2.7-.1l.7.6c.3.2.4.5.2.7-.9 1.4-2.3 2.2-4.2 2.2-3 0-5.6-2.4-5.6-5.6.1-3 2.7-5.5 5.7-5.5zM42.7 68.8c3 0 5.4 2.6 5.4 5.6 0 3.1-2.4 5.6-5.4 5.6s-5.4-2.6-5.4-5.6c0-3.1 2.4-5.6 5.4-5.6zm0 8.9c1.7 0 3-1.5 3-3.3 0-1.8-1.3-3.3-3-3.3s-3 1.5-3 3.3c-.1 1.8 1.3 3.3 3 3.3zM50.8 69.5c0-.3.2-.5.5-.5h.8c.2 0 .4.1.4.3l.3.9c.2-.2 1.6-1.5 3.8-1.5 3.3 0 4.5 2.3 4.5 5.1v5.4c0 .3-.2.5-.5.5h-1.5c-.3 0-.5-.2-.5-.5v-5.5c0-1.7-.8-2.6-2.2-2.6-1.7 0-2.9 1.2-3 1.6v6.5c0 .3-.2.5-.6.5h-1.4c-.3 0-.5-.2-.5-.5v-9.7zM65.1 71.3H64c-.3 0-.5-.2-.5-.5v-1.2c0-.3.2-.5.5-.5h1.1v-3c0-.3.2-.5.5-.5h1.5c.3 0 .5.2.5.5v3h2.7c.3 0 .5.2.5.5v1.2c0 .3-.2.5-.5.5h-2.7v5.3c0 .9.3 1.1.9 1.1.6 0 1.3-.3 1.6-.5.3-.2.5 0 .6.2l.5 1.2c.1.3 0 .5-.2.6-.3.2-1.9.8-3.1.8-2.1 0-2.7-1.3-2.7-3.2v-5.5zM78.3 68.8c2.8 0 5 2.1 5 4.9 0 .2 0 .5-.1.7 0 .3-.2.5-.5.5h-7.3c.1 1.4 1.3 2.9 3.1 2.9 1 0 1.9-.4 2.4-.8.3-.2.5-.3.7 0l.8 1c.2.2.3.4-.1.7-.8.7-2.2 1.3-4 1.3-3.3 0-5.4-2.5-5.4-5.6 0-3 2.2-5.6 5.4-5.6zm2.5 4.4c-.1-1.3-1.2-2.4-2.5-2.4-1.5 0-2.6 1-2.7 2.4h5.2zM85.9 69.5c0-.3.2-.5.5-.5h.8c.2 0 .4.1.4.3l.3.9c.2-.2 1.6-1.5 3.8-1.5 3.3 0 4.5 2.3 4.5 5.1v5.4c0 .3-.2.5-.5.5h-1.5c-.3 0-.5-.2-.5-.5v-5.5c0-1.7-.8-2.6-2.2-2.6-1.7 0-2.9 1.2-3 1.6v6.5c0 .3-.2.5-.6.5h-1.4c-.3 0-.5-.2-.5-.5v-9.7zM100.2 71.3H99c-.3 0-.5-.2-.5-.5v-1.2c0-.3.2-.5.5-.5h1.1v-3c0-.3.2-.5.5-.5h1.5c.3 0 .5.2.5.5v3h2.7c.3 0 .5.2.5.5v1.2c0 .3-.2.5-.5.5h-2.7v5.3c0 .9.3 1.1.9 1.1.6 0 1.3-.3 1.6-.5.3-.2.5 0 .6.2l.5 1.2c.1.3 0 .5-.2.6-.3.2-1.9.8-3.1.8-2.1 0-2.7-1.3-2.7-3.2v-5.5z"/></g><g fill="#FFF"><path d="M130 47.9c-.1 1.4-.2 2.8-.2 4.2v5h-25.4c.2-11.6.3-23 .5-34.4 7.9-.2 15.8-.4 23.8-.6.1 3.1.2 6.1.3 9.1h-13v3.9h9.7v8.4H116v4.1h14v.3zM0 25.4c.1-.9.2-1.8.3-2.9 9.4-.1 18.8-.2 28.4-.3v10h-8.3c.1 8.4.3 16.5.4 24.9-4 .1-7.9.3-11.9.4V32.8H.1C0 30.3 0 27.9 0 25.4zM64.4 54.8c-3.7 1.2-7.2 2.4-10.8 3.5-.7-1.1-1.3-2.1-1.9-3.1-1.5-2.4-3-4.8-4.4-7.2-.9-1.5-.9-1.5-2.9-1.2v10h-11V22.7c6.4-.3 12.8-1.4 19.1-.2 3.6.7 6.7 2.3 8.4 5.8 2.5 5 1 11.4-3.6 15.1-.2.2-.4.3-.6.5 2.4 3.6 5 7.2 7.7 10.9zm-20-23.4v6.7c1.7-.3 3.3-.5 4.8-1 1.4-.4 2-1.8 1.9-3.2-.2-1.4-1-2.4-2.5-2.5-1.4-.1-2.8 0-4.2 0zM86.7 22.6c3.9-.1 7.6-.2 11.6-.4V27l.3 14.2c0 3.6-.4 7.2-2.5 10.3-2.4 3.7-6.1 5.3-10.3 5.8-3.5.4-7.1.3-10.4-1.1-5-2.1-7.6-6.1-7.7-11.3-.2-7.3.1-14.6.1-22 0-.1.1-.1.1-.2h11.3v1.2C79.1 30 79 36 79 42.1c0 .8 0 1.7.2 2.5.4 1.6 1.7 2.7 3.2 2.8 1.7.1 3.2-.8 3.7-2.4.3-.9.5-1.9.5-2.9v-18c.1-.4.1-.9.1-1.5z"/></g></svg>