<svg id="Layer_1" xmlns="http://www.w3.org/2000/svg" viewBox="-38 38 23 25"><path d="M-37.9 38c2 2.4 4 4.9 6 7.4 1.8-2.3 3.6-4.5 5.5-6.8 1.8 2.3 3.7 4.5 5.5 6.8 2-2.5 4-4.9 5.9-7.4h.1c-.1.6-.1 1.3-.2 1.9-.1 1.7-.3 3.3-.4 5-.2 1.7-.3 3.4-.5 5.1-.1 1.4-.2 2.8-.4 4.1 0 .5 0 .5-.5.5h-19.2c-.3 0-.4-.1-.5-.4-.1-1.8-.3-3.6-.5-5.5-.1-1.6-.2-3.1-.4-4.7-.1-1.8-.3-3.7-.5-5.6 0-.1 0-.2.1-.4-.1 0-.1 0 0 0z" fill="#FFF"/><g fill="#FFF"><path d="M-18.2 61.3v-.6h1.5v-1.3h-1.5v-.6h2c0-.5 0-1-.1-1.4-1.3 0-2.5.1-3.7.1 0 1.8-.1 3.6-.1 5.4h4v-.8-.7-.1h-2.1zM-36.4 57.8V59h1.4v3.9c.6 0 1.2 0 1.9-.1 0-1.3 0-2.6-.1-3.9h1.3v-1.6c-1.5 0-3 0-4.5.1v.4zM-27.5 60.6c.7-.6 1-1.6.6-2.4-.3-.5-.8-.8-1.3-.9-1-.2-2 0-3 0v5.4h1.7v-1.6c.3 0 .3 0 .5.2.2.4.5.8.7 1.1.1.2.2.3.3.5.6-.2 1.1-.4 1.7-.6-.4-.4-.9-1-1.2-1.7 0 .1 0 .1 0 0zm-1.2-.9c-.2.1-.5.1-.7.2v-1.1h.6s.4.2.4.4-.1.4-.3.5zM-21 57.3c-.6 0-1.2 0-1.8.1v3c0 .2 0 .3-.1.5-.1.3-.3.4-.6.4-.2 0-.4-.2-.5-.4v-.4-2.9-.2h-1.8c0 1.2-.1 2.3 0 3.5 0 .8.4 1.5 1.2 1.8.5.2 1.1.2 1.6.2.7-.1 1.2-.3 1.6-.9.3-.5.4-1 .4-1.6v-2.2-.9z"/></g></svg>