<svg xmlns="http://www.w3.org/2000/svg"><symbol id="icon-alarmclock-bubble" viewBox="0 0 58 59"><path d="M28.4 18.2c-2.5.2-4.3 1.3-5.6 2.7-1.3 1.4-2.4 3.3-2.2 6 .1 2.5 1.1 4.3 2.5 5.7 1.3 1.3 3.3 2.4 5.8 2.4 4.7 0 8.4-3.6 8.4-8.4 0-2.7-1.2-4.7-2.6-6-1.4-1.4-3.7-2.6-6.3-2.4zm2.1 8.9c-.2.6-.9 1.1-1.4 1.6-.5.5-1.1 1.2-1.6 1.3-1.2.2-2.2-.7-2-2.1.1-.3.5-.9.8-1.1.2-.2.8-.6.9-.9.2-.8 0-1.8 0-2.6 0-1.7-.2-3.1 1.4-3.4.7-.1 1.6.2 1.9.9.2.6.1 2.2.1 3.1-.1 1.1.1 2.4-.1 3.2z"/><path d="M29 0C13 0 0 12 0 26.8c0 9.5 5.3 17.8 13.3 22.6C10.7 55 5.4 59 5.4 59s11-.4 15.7-6.3c2.5.7 5.2 1 7.9 1 16 0 29-12 29-26.8C58 12 45 0 29 0zM15.5 17v-1.2c.5-2.5 1.9-4 4.4-4.5H21c1.7.3 2.8 1.1 3.7 2.3-3.4 1.2-5.9 3.3-7.6 6.4-.8-.4-1.3-1.7-1.6-3zm25 19.1c.4 1.4-.8 2.6-2.1 2.2-1-.3-1.7-1.8-2.5-2.3-1.7 1.3-4 2.4-6.9 2.4-2.9 0-5.3-1-7-2.3-.9.3-1.5 1.9-2.6 2.3-1.3.4-2.4-.6-2.2-2 .2-1.1 1.9-1.8 2.3-2.7-2.5-2.8-3.1-8.4-1.1-12.4 1.7-3.4 5.1-6.2 9.7-6.5 5.2-.3 9 2.5 10.9 5.8 1 1.8 1.8 4.2 1.6 6.8-.2 2.5-1.1 4.4-2.3 6.1.3 1 1.9 1.5 2.2 2.6zm.1-16c-1.6-3-4.1-5.2-7.6-6.3.8-1.2 1.9-2.1 3.7-2.4h1.1c2.3.3 4.2 2.2 4.4 4.6.2 1.5-.4 3.3-1.6 4.1z"/></symbol><symbol id="icon-bottom-arrow" viewBox="0 0 17 11"><path d="M8.5 11C7.3 11 .4 2.7.4 2.7.1 2.4 0 2 0 1.6 0 .7.7 0 1.6 0c.3 0 .9.3 1 .4l6 4.7L14.3.4c.1-.1.8-.4 1.1-.4.9 0 1.6.7 1.6 1.6 0 .4-.4 1.1-.4 1.2C15.4 4.1 9.5 11 8.5 11z"/></symbol><symbol id="icon-clients" viewBox="0 0 35 36"><path d="M35 11.6c0-1-.3-1.9-.8-2.7-1.3-2.2-3.3-3.1-5.7-3.4-1.1-.1-2.2-.2-3.4-.3v-3C25 .8 24.1 0 22.7 0H11.9c-1.6 0-2.4.7-2.5 2.2h-.1v3c-.7.1-1.3.1-1.9.1-2 .2-3.9.6-5.5 2-1 .9-1.8 2-1.8 3.3C0 16.5 0 20.4 0 26.3c0 .5.1 1.1.3 1.5 1.1 2.6 3.3 3.6 5.9 4 .4.1.6.2.6.6v1.1c0 1.6.9 2.4 2.5 2.4h16.4c1.6 0 2.5-.8 2.5-2.4v-1.8c1.5-.2 2.8-.5 4-1.3 1.7-1.2 2.8-2.7 2.7-4.8 0-5.4.1-8.6.1-14zM10.9 22.5c.3-.5.7-.4 1.2-.3 1.5.4 3.1 1 4.6 1.2 2 .3 3.8-.4 5.6-1.2.6-.3 1.1-.4 1.4.3.3.7-.3.9-.8 1.1-1.8.8-3.7 1.4-5.9 1.4-1.9-.1-3.8-.6-5.6-1.4-.4-.2-.8-.5-.5-1.1zm-.1-5.4c0-1 .8-1.8 1.8-1.8s1.8.8 1.8 1.8-.8 1.8-1.8 1.8-1.8-.8-1.8-1.8zM22 18.9c-1 0-1.8-.8-1.8-1.8s.8-1.8 1.8-1.8 1.8.8 1.8 1.8c0 1.1-.8 1.8-1.8 1.8z"/></symbol><symbol id="icon-complexity-device" viewBox="0 0 46 53"><g fill-rule="evenodd" clip-rule="evenodd"><path d="M45.4 4.1C44.7 1.9 42.5.3 40.3 0H5.7C3.1.4.5 2.5.2 5.7-.1 9 0 44 .2 47.2c.3 3.2 2.6 5.3 5.4 5.8h34.6c2.4-.4 4.4-1.9 5.1-4.3.9-2.9.9-42 .1-44.6zm-17.7-.2c2-.3 3.6.9 3.8 2.8.4 4.4-5.8 4.8-6.6 1.2-.5-2 .6-3.7 2.8-4zm-3.1 39c-8.8.9-16.2-5.5-16.2-14.2 0-6.8 4.1-11.5 8.9-13.5 1.1-.5 2.5-.8 4.2-.9 6.4-.6 10.7 2.3 13.3 5.9 1.4 1.9 2.7 5.2 2.7 8.4 0 8-6 13.6-12.9 14.3zM41.7 8c-.3 1.7-2.1 2.5-3.2 2.5-4.2 0-4.4-6-.4-6.5 2.2-.3 4.2 1.3 3.6 4z"/><path d="M22.3 16.1c-3.2.2-5.6 1.4-7.3 3-1.8 1.6-3.2 3.3-3.8 6.5-1.3 7.1 3.7 13.5 10.7 14.1 7.3.6 12.1-4.4 13-9.9 1.2-7.8-5.1-14.2-12.6-13.7zm.1 11.7c-2.9-.2-6.3-2.8-9.1-.8.5-4.9 3.8-8.5 8.9-8.9 6-.5 9.9 3.6 10.7 8.9-3.2-1.8-6.9 1.1-10.5.8z"/></g></symbol><symbol id="icon-contacts" viewBox="0 0 36 36"><path d="M36 11.5c0-.2 0-.3-.1-.5-1.2-2.5-3.2-4-6-4.3-1.6-.1-3.2 0-4.8-.1h-.4v8.9h-2.2V4.2h6.7V-.3h-9v6.7h-7.1l2.1 3c.4.6.5 1.2.5 1.9v17.6H18v6.7h6.8v-6.8H36V11.5zm-22.6-.6C12 8.3 9.8 6.8 6.8 6.8c-3 0-5.2 1.4-6.6 4.1-.1.2-.2.5-.2.7v17.6h13.4V11.5c.1-.2 0-.4 0-.6z"/></symbol><symbol id="icon-cross" viewBox="0 0 16 16"><path d="M15.7 13.4S13.2 10.3 11 8c2.2-2.3 4.7-5.4 4.7-5.4.2-.3.3-.6.3-1 0-.9-.7-1.6-1.5-1.6-.3 0-.5.1-.7.2-.1 0-.1.1-.2.2L7.9 5 2.5.5 2.2.2C2 .1 1.7 0 1.5 0 .7 0 0 .7 0 1.6c0 .4.1.7.3 1 0 .1.1.1.1.2C1 3.4 3.2 6 5 8c-1.9 2-4 4.6-4.6 5.3 0 0-.1.1-.1.2-.2.2-.3.5-.3.9 0 .9.7 1.6 1.5 1.6.3 0 .5-.1.7-.2.1-.1.2-.1.3-.2L7.9 11l5.7 4.6.2.2c.2.1.5.2.7.2.8 0 1.5-.7 1.5-1.6 0-.4-.1-.7-.3-1z"/></symbol><symbol id="icon-crown" viewBox="0 0 23 17"><path d="M.1 0c2 2.5 4 5 6 7.6L11.5.7C13.3 3 15.2 5.3 17 7.6c2-2.5 4-5.1 5.9-7.6h.1c-.1.6-.1 1.3-.2 1.9-.1 1.7-.3 3.4-.4 5.1-.2 1.7-.3 3.5-.5 5.2-.1 1.4-.2 2.8-.4 4.2 0 .5 0 .5-.5.5H1.8c-.3 0-.4-.1-.5-.4-.1-1.9-.3-3.7-.5-5.6C.8 9.4.7 7.8.5 6.2.4 4.3.2 2.4 0 .5 0 .3 0 .2.1 0 0 0 0 0 .1 0z"/></symbol><symbol id="icon-eye" viewBox="0 0 40 34"><path d="M39.9 21.9c-.5-.7-.9-1.3-1.4-1.9-3-4-6.8-6.6-11.7-7.7-4-.9-7.9-.9-12-.3C8.2 13.1 3.4 16.6 0 22.3 1.8 25.4 4.2 28 7.3 30c6.1 3.8 12.7 4.8 19.7 3.5 3.7-.7 6.9-2.5 9.3-5.5 1.4-1.7 2.5-3.7 3.7-5.5 0-.2 0-.4-.1-.6zm-17.7-5.8c1.6 0 3 1.3 3 2.9 0 1.7-1.3 3-3 3-1.6 0-3-1.3-3-3-.1-1.5 1.3-2.9 3-2.9zm13.4 6.6c-2 3.7-4.9 6.3-9.1 7.2-2.5.6-4.9.6-7.4.4-3.4-.3-6.7-1.3-9.6-3.2-2-1.3-3.7-2.8-5.1-4.7 2.3-3.2 5.3-5.4 9.2-6.4-2.1 6.4 2.7 11.5 7.5 12.1 5.8.7 10.7-4.1 10.2-10.1.6.5 1.2.8 1.6 1.3.9.9 1.8 1.9 2.6 2.8.2.2.2.5.1.6zM22.3 0h-4v6.4h4V0zm10.5 8.1c.3-.2.5-.7.7-1.1.7-1.3 1.3-2.6 2-3.9-1.2-.6-2.4-1.2-3.7-1.9-1 2-2 3.9-3 6 1 .2 1.9.5 2.8.7.4 0 .9.3 1.2.2zm-25.1 0c1.1-.3 2.1-.6 3.2-.8.2-.1.4-.1.7-.2C10.4 5.5 9.2 3.9 8 2.4L4.7 4.8c.8 1.1 1.6 2 2.3 3.1.2.2.4.2.7.2z"/></symbol><symbol id="icon-location-marker" viewBox="0 0 18 26"><path d="M0 9.6V7.4c.1-.2.2-.3.2-.5C1.1 2.9 4.7 0 9 0c4.3 0 7.9 2.8 8.9 7 0 .2.1.3.2.5v2.2c-1.8 6.1-5.4 11.2-8.9 16.4C9 26 9 26 8.9 26c-.2-.2-.3-.4-.5-.7-3.3-5-6.7-10-8.4-15.7zm13.5-.7c0-2.4-2-4.3-4.5-4.4-2.4 0-4.5 1.9-4.5 4.3s2 4.4 4.5 4.4c2.4 0 4.5-1.9 4.5-4.3z"/></symbol><symbol id="icon-mini_logo" viewBox="0 0 23 25"><path d="M.1 0c2 2.4 4 4.9 6 7.4C7.9 5.1 9.7 2.9 11.6.6c1.8 2.3 3.7 4.5 5.5 6.8 2-2.5 4-4.9 5.9-7.4h.1c-.1.6-.1 1.3-.2 1.9-.1 1.7-.3 3.3-.4 5-.2 1.7-.3 3.4-.5 5.1-.1 1.4-.2 2.8-.4 4.1 0 .5 0 .5-.5.5H1.9c-.3 0-.4-.1-.5-.4-.1-1.8-.3-3.6-.5-5.5C.8 9.1.7 7.6.5 6 .4 4.2.2 2.3 0 .4 0 .3 0 .2.1 0 0 0 0 0 .1 0zm19.7 23.3v-.6h1.5v-1.3h-1.5v-.6h2c0-.5 0-1-.1-1.4-1.3 0-2.5.1-3.7.1 0 1.8-.1 3.6-.1 5.4h4v-1.6h-2.1zM1.6 19.8V21H3v3.9c.6 0 1.2 0 1.9-.1 0-1.3 0-2.6-.1-3.9h1.3v-1.6c-1.5 0-3 0-4.5.1v.4zm8.9 2.8c.7-.6 1-1.6.6-2.4-.3-.5-.8-.8-1.3-.9-1-.2-2 0-3 0v5.4h1.7v-1.6c.3 0 .3 0 .5.2.2.4.5.8.7 1.1.1.2.2.3.3.5.6-.2 1.1-.4 1.7-.6-.4-.4-.9-1-1.2-1.7 0 .1 0 .1 0 0zm-1.2-.9c-.2.1-.5.1-.7.2v-1.1h.6c.2 0 .4.2.4.4s-.1.4-.3.5zm7.7-2.4c-.6 0-1.2 0-1.8.1v3c0 .2 0 .3-.1.5-.1.3-.3.4-.6.4-.2 0-.4-.2-.5-.4v-3.5h-1.8c0 1.2-.1 2.3 0 3.5 0 .8.4 1.5 1.2 1.8.5.2 1.1.2 1.6.2.7-.1 1.2-.3 1.6-.9.3-.5.4-1 .4-1.6v-3.1z"/></symbol><symbol id="icon-next-arrow" viewBox="0 0 11 17"><path d="M11 8.5C11 7.3 2.7.4 2.7.4 2.4.1 2 0 1.6 0 .7 0 0 .7 0 1.6c0 .3.1.6.2.8 0 .1.1.1.2.2l4.7 6-4.7 5.7c-.1.1-.2.2-.2.3-.1.3-.2.5-.2.8 0 .9.7 1.6 1.6 1.6.4 0 .7-.1 1-.3.1 0 .1-.1.2-.1C4.1 15.4 11 9.5 11 8.5z"/></symbol><symbol id="icon-photo" viewBox="0 0 35 37"><path d="M35 13.1c0-2.3-1.7-4.1-4-4.3-.3 0-.4-.1-.5-.4C29.3 6 28.2 3.7 27 1.3 26.6.5 25.9 0 25 0h-6c-.9 0-1.5.4-1.9 1.2l-3.6 7.2c-.2.4-.4.4-.7.4h-8C1.9 8.8 0 10.7 0 13.4v21.7h.1C.4 36.3 1.2 37 2.6 37h29.7c1.5 0 2.3-.6 2.6-1.9h.1v-22zm-13.1.1c4.7 0 8.7 3.9 8.7 8.7 0 4.9-3.9 8.9-8.7 8.9-4.9 0-8.8-3.9-8.8-8.8s4-8.8 8.8-8.8zm-15.3 0c1.2 0 2.2 1 2.2 2.2 0 1.2-1 2.2-2.2 2.2-1.2 0-2.2-1-2.2-2.2 0-1.2 1-2.2 2.2-2.2z"/><path d="M21.8 26.4c2.4 0 4.4-1.9 4.4-4.4 0-2.4-1.9-4.4-4.4-4.4-2.4 0-4.4 2-4.4 4.4.1 2.4 2 4.4 4.4 4.4z"/></symbol><symbol id="icon-play-action" viewBox="0 0 36 36"><path d="M17.2 9.7c-.3-.2-.6-.3-1-.3-.8 0-1.5.7-1.5 1.5v13.5c0 .8.7 1.5 1.5 1.5.3 0 .7-.1.9-.3.1 0 .1-.1.1-.1 1.2-1 7.6-6.8 7.6-7.8.1-1.2-7.6-8-7.6-8z"/><path d="M18 0C6.4 0 0 6.4 0 18c0 11.1 6.9 18 18 18s18-6.9 18-18C36 6.6 29.4 0 18 0zm0 32.6c-4.4 0-14.6-1.4-14.6-14.6C3.4 8.3 8.3 3.4 18 3.4c12 0 14.6 7.9 14.6 14.6 0 4.4-1.4 14.6-14.6 14.6z"/></symbol><symbol id="icon-plus-action" viewBox="0 0 36 36"><path d="M26.9 16.6h-.3l-6.7-.6-.5-6.5v-.3c-.1-.2-.2-.5-.3-.6-.5-.5-1.4-.5-2 .1-.2.2-.4.5-.4.8v.2c-.1.8-.4 3.9-.5 6.5-2.6.1-5.6.5-6.5.5h-.2c-.3.1-.6.2-.8.4-.6.6-.6 1.5-.1 2 .2.2.4.3.6.3h.3l6.5.5.6 6.7v.2c0 .2.2.5.3.6.5.5 1.4.5 2-.1.3-.3.4-.6.4-.9 0 0 .4-3.6.6-6.6 3-.2 6.6-.6 6.6-.6.3 0 .6-.2.9-.4.6-.6.6-1.5.1-2-.1-.1-.3-.2-.6-.2z"/><path d="M18 0C6.4 0 0 6.4 0 18c0 11.1 6.9 18 18 18s18-6.9 18-18C36 6.6 29.4 0 18 0zm0 32.6c-4.4 0-14.6-1.4-14.6-14.6C3.4 8.3 8.3 3.4 18 3.4c12 0 14.6 7.9 14.6 14.6 0 4.4-1.4 14.6-14.6 14.6z"/></symbol><symbol id="icon-prev-arrow" viewBox="0 0 11 17"><path d="M0 8.5C0 7.3 8.3.4 8.3.4 8.6.1 9 0 9.4 0c.9 0 1.6.7 1.6 1.6 0 .3-.1.6-.2.8 0 .1-.1.1-.2.2l-4.7 6 4.7 5.7c.1.1.2.2.2.3.1.2.2.5.2.8 0 .9-.7 1.6-1.6 1.6-.4 0-.7-.1-1-.3-.1 0-.1-.1-.2-.1C6.9 15.4 0 9.5 0 8.5z"/></symbol><symbol id="icon-review-bubble" viewBox="0 0 58 59"><path d="M29 0C13 0 0 12 0 26.8c0 9.5 5.3 17.8 13.3 22.6C10.7 55 5.4 59 5.4 59s11-.4 15.7-6.3c2.5.7 5.2 1 7.9 1 16 0 29-12 29-26.8C58 12 45 0 29 0zm11.1 37.5h-23c-1.2 0-2.2-1-2.2-2.3 0-1.2 1-2.3 2.2-2.3H40c1.2 0 2.2 1 2.2 2.3.1 1.3-.9 2.3-2.1 2.3zm0-9.3h-23c-1.2 0-2.2-1-2.2-2.3 0-1.2 1-2.3 2.2-2.3H40c1.2 0 2.2 1 2.2 2.3.1 1.3-.9 2.3-2.1 2.3zm0-9.8h-23c-1.2 0-2.2-1-2.2-2.3 0-1.2 1-2.3 2.2-2.3H40c1.2 0 2.2 1 2.2 2.3.1 1.3-.9 2.3-2.1 2.3z"/></symbol><symbol id="icon-share-action" viewBox="0 0 36 36"><path d="M18 0C6.4 0 0 6.4 0 18c0 11.1 6.9 18 18 18s18-6.9 18-18C36 6.6 29.4 0 18 0zm0 32.6c-4.4 0-14.6-1.4-14.6-14.6C3.4 8.3 8.3 3.4 18 3.4c12 0 14.6 7.9 14.6 14.6 0 4.4-1.4 14.6-14.6 14.6z"/><path d="M15.2 24.7c-1.5 1.5-3.6.9-4.3-.9-.4-1 0-1.9.7-2.7l3-3c.6-.6 1.2-1.1 1.8-1.6.2-.2.4-.3.7-.3.8-.2 1.4.1 2.1.5.1.1.1.1.2.1l1.8-1.8s0-.1-.1-.1c-1.7-1.6-4.3-1.7-6.1-.6-.8.5-1.5 1.2-2.2 1.9-.9.9-1.9 1.9-2.9 2.8-1.4 1.4-2 3.1-1.6 5 .2 1.1.8 1.9 1.7 2.6.8.7 1.7 1.1 2.8 1.2 2.2.2 3.8-1 5-2.5-.6-.6-1.1-1.2-1.7-1.8-.3.5-.6.9-.9 1.2z"/><path d="M25.4 8.4c-.4-.2-.9-.4-1.4-.5-2.3-.2-3.9.9-5.2 2.5.6.6 1.1 1.2 1.7 1.8.2-.3.5-.5.7-.7.5-.6 1.1-1 1.8-1.2.9-.2 1.5.1 2 .8 0 .1.1.1.2.2.9 1 .9 2.3 0 3.3-1.4 1.5-2.9 3-4.4 4.4-.6.6-1.4.8-2.2.5-.4-.1-.8-.4-1.2-.5l-1.8 1.8c1 .9 2.2 1.4 3.5 1.4 1.3 0 2.5-.5 3.4-1.4 1.5-1.5 3-2.9 4.4-4.4 1.5-1.6 1.8-4 .6-5.9-.4-.9-1.2-1.6-2.1-2.1z"/></symbol><symbol id="icon-simple-device" viewBox="0 0 65 53"><g fill-rule="evenodd" clip-rule="evenodd"><path d="M36.6 6.7V1.4c-.5-1.8-3.6-1.8-4.1 0v5.3c.5 1.8 3.6 1.8 4.1 0zM24.4 6.7V1.4c-.5-1.8-3.6-1.8-4.1 0v5.3c.5 1.8 3.6 1.8 4.1 0zM12.2 6.7V1.4c-.5-1.8-3.6-1.8-4.1 0v5.3c.5 1.8 3.6 1.8 4.1 0zM54.5 12.2H0v18.3c1.3 10.3 7.2 17.6 15.7 20.9 13.1 5 25.4-2.4 30-11 11.4 1.2 17.6-5 19.3-14.4V15.3c-.8-4-5.8-3.1-10.5-3.1zm-6 20.3c.4-3.7.2-8.1.3-12.2h8c.9 7.3-1.8 12-8.3 12.2z"/></g></symbol><symbol id="icon-tag-bubble" viewBox="0 0 58 59"><path d="M33.7 18.2c-1.4.2-2.5 1.4-2.3 3.1.2 1.3 1.4 2.4 2.8 2.4 2.1 0 3.2-2.2 2.4-3.9-.4-1.1-1.6-1.7-2.9-1.6z"/><path d="M29 0C13 0 0 12 0 26.8c0 9.5 5.3 17.8 13.3 22.6C10.7 55 5.4 59 5.4 59s11-.4 15.7-6.3c2.5.7 5.2 1 7.9 1 16 0 29-12 29-26.8C58 12 45 0 29 0zm14 26.6c-.1.6-1.3 1.5-1.9 2-4 4-7.5 7.6-11.5 11.7-.5.5-1.5 1.7-2.1 1.8-.6 0-1.5-1.2-2-1.6-3.8-3.8-7-7.1-10.8-10.9-.5-.5-1.6-1.3-1.7-1.9 0-.7 1.2-1.5 1.7-2.1C19.4 21 24 16.3 28.4 12c3.4.3 6.7.5 10.3.8 1 .1 2.8 0 3.2.4.4.4.4 2.4.4 3.3.2 3.2.4 5.4.6 8.5 0 .5.2 1.2.1 1.6z"/></symbol><symbol id="icon-texts" viewBox="0 0 38 38"><path d="M18.9 8c-.3-.3-.5-.3-.8-.2-3.6 1.6-7.3 3.1-10.9 4.7-.3.1-.5.4-.6.7l-3.3 9.9c-1.1 3.2-2.1 6.3-3.2 9.5-.1.2-.1.5 0 .6.5.5 1 1 1.5 1.6.1-.1.2-.2.3-.2L12.5 24c.3-.3.2-.5 0-.7-.7-1.7-.6-3.3.5-4.8s2.6-2.2 4.4-1.9c2 .3 3.4 1.4 4 3.4.6 1.9.1 3.6-1.5 4.9-1.5 1.3-3.3 1.5-5.1.7-.4-.2-.5-.1-.8.1l-8.8 8.8c-.7.6-1.3 1.3-2 2l1.3 1.3c.3.3.5.3.9.2 6.4-2.2 12.9-4.3 19.3-6.4.4-.1.6-.3.7-.7 1.5-3.6 3.1-7.2 4.7-10.9.2-.4.1-.6-.2-.9-3.6-3.7-7.3-7.4-11-11.1zm4-8l-1.5 4.5c-.1.3 0 .5.2.7 1 .9 1.9 1.9 2.8 2.8l8.4 8.4c.1.1.4.3.6.2 1.6-.5 3.2-1 4.7-1.5C33 10.1 27.9 5 22.9 0z"/></symbol><symbol id="icon-video-nav-item-01" viewBox="-105 331 400 132"><path d="M-84 339l364-8 15 132h-400l21-124z"/></symbol><symbol id="icon-video-nav-item-02" viewBox="-101 331 408 132"><path d="M-80 331l362 9 25 123h-408l21-132z"/></symbol><symbol id="icon-video-nav-item-03" viewBox="-105 330 400 133"><path d="M-90 330l365 10 20 123h-400l15-133z"/></symbol><symbol id="icon-video" viewBox="0 0 37 39"><path d="M37 16H2.7v-.1c1.6-.5 3.1-.9 4.8-1.4C6.7 12.3 5.8 10 5 7.7c-1.7.5-3.3 1-5 1.5.7 2.2 1.4 4.2 2.1 6.3.1.3.2.7.2 1.1v19.9c0 1.6.9 2.6 2.6 2.6h29.4c1.8 0 2.7-.9 2.7-2.7V16zm-4.7 11.5H6.9v-6.8h25.4v6.8zM26.6 9.2c-.9-2.3-1.7-4.5-2.6-6.8-2.3.6-4.5 1.3-6.8 1.9.9 2.3 1.7 4.5 2.6 6.8 2.3-.6 4.5-1.3 6.8-1.9z"/><path d="M16.7 12c-.9-2.3-1.7-4.5-2.6-6.8-2 .6-3.9 1.1-6 1.7.9 2.3 1.7 4.5 2.6 6.8 2-.6 4-1.2 6-1.7zm18-5.1c-.8-2.3-1.5-4.6-2.3-6.9-1.8.5-3.5 1-5.2 1.5.8 2.3 1.7 4.5 2.5 6.8 1.7-.5 3.3-.9 5-1.4z"/></symbol></svg>